<svg width="17" height="17" viewBox="0 0 17 17" fill="none" xmlns="http://www.w3.org/2000/svg">
<g clip-path="url(#clip0_2_9837)">
<path fill-rule="evenodd" clip-rule="evenodd" d="M8.35059 16.5C12.7689 16.5 16.3506 12.9183 16.3506 8.5C16.3506 4.08172 12.7689 0.5 8.35059 0.5C3.93231 0.5 0.350586 4.08172 0.350586 8.5C0.350586 12.9183 3.93231 16.5 8.35059 16.5ZM2.35059 8.5C2.35059 5.19161 5.04197 2.5 8.35044 2.5C11.6589 2.5 14.3506 5.19161 14.3506 8.5C14.3506 11.8084 11.6589 14.5 8.35044 14.5C5.04197 14.5 2.35059 11.8084 2.35059 8.5ZM12.7243 10.4885C13.0015 9.88153 13.1598 9.20967 13.1598 8.5C13.1598 6.05041 11.3172 4.0262 8.94582 3.73149V7.88589L12.7243 10.4885ZM7.75507 7.88619V3.73149C5.38371 4.0262 3.54133 6.05041 3.54133 8.5C3.54133 9.20967 3.6997 9.88153 3.97685 10.4885L7.75507 7.88619ZM7.75507 9.33201L4.60109 11.5045C5.36555 12.4567 6.48366 13.1104 7.75507 13.2685V9.33201ZM8.94582 9.33171V13.2685C10.2172 13.1104 11.3353 12.4567 12.1001 11.5042L8.94582 9.33171Z" fill="white"/>
</g>
<defs>
<clipPath id="clip0_2_9837">
<rect width="16" height="16" fill="white" transform="translate(0.350586 0.5)"/>
</clipPath>
</defs>
</svg>
