<svg width="17" height="16" viewBox="0 0 17 16" fill="none" xmlns="http://www.w3.org/2000/svg">
<path fill-rule="evenodd" clip-rule="evenodd" d="M14.0383 1.2222V1.22221C14.0403 1.23012 14.0403 1.23606 14.0403 1.24398V1.2618L14.0383 11.4011C14.0383 11.4843 13.9967 11.5615 13.9274 11.609L8.83597 14.9584C8.7944 14.9861 8.74689 15 8.69938 15C8.65187 15 8.60436 14.9861 8.56279 14.9584L3.46342 11.609C3.39414 11.5633 3.35257 11.4843 3.35257 11.4011L3.35059 1.26448C3.35059 1.27003 3.35067 1.27383 3.35276 1.27763C3.35276 1.27172 3.35227 1.26635 3.35178 1.26095C3.35128 1.25551 3.35078 1.25004 3.35078 1.24398C3.35078 1.21033 3.3587 1.17668 3.37058 1.14698C3.37652 1.13313 3.38246 1.11927 3.39235 1.10541C3.40225 1.09155 3.41215 1.07968 3.42403 1.06978C3.43393 1.0579 3.4458 1.048 3.45768 1.04009C3.45966 1.03811 3.45966 1.03811 3.46164 1.03811H3.46164C3.4654 1.03596 3.46902 1.03381 3.47257 1.03169C3.48209 1.02603 3.49114 1.02066 3.50123 1.01633H3.50321C3.5626 0.994556 3.63188 0.994556 3.69325 1.01633C3.69325 1.01723 3.69325 1.01772 3.69343 1.0178C3.69366 1.0179 3.69415 1.01741 3.69523 1.01633L4.0375 1.13313C5.74388 1.7171 6.68418 2.03779 8.69938 2.03779C10.7086 2.03779 11.641 1.71908 13.3375 1.13709L13.6958 1.01633C13.6969 1.01741 13.6974 1.0179 13.6976 1.0178C13.6978 1.01772 13.6978 1.01723 13.6978 1.01633C13.7592 0.994556 13.8284 0.994556 13.8878 1.01633H13.8898C13.9076 1.02425 13.9235 1.03217 13.9393 1.04603L13.9393 1.04603C13.9433 1.04801 13.9472 1.04998 13.9512 1.05394C13.9611 1.06186 13.969 1.06977 13.9769 1.07769L13.9769 1.0777C13.9848 1.08562 13.9927 1.09551 13.9987 1.10541C14.0008 1.10917 14.003 1.11279 14.0051 1.11634C14.0108 1.12587 14.0161 1.13491 14.0205 1.145V1.14698C14.0244 1.15886 14.0284 1.17074 14.0323 1.18459C14.0343 1.18638 14.0343 1.18855 14.0343 1.19053C14.0343 1.1922 14.0347 1.19433 14.0351 1.19671C14.0357 1.19969 14.0363 1.20306 14.0363 1.20637C14.0383 1.21231 14.0383 1.21626 14.0383 1.2222ZM3.77223 1.06978V1.0678C3.77025 1.06384 3.7663 1.06186 3.76234 1.05988C3.76374 1.06128 3.76514 1.06244 3.76646 1.06352C3.76885 1.06549 3.77096 1.06722 3.77223 1.06978ZM13.6186 1.0678V1.06978C13.6199 1.06722 13.622 1.06549 13.6244 1.06352C13.6257 1.06244 13.6271 1.06128 13.6285 1.05988L13.6278 1.06021C13.6241 1.06207 13.6205 1.06387 13.6186 1.0678ZM5.56968 11.7027C5.61501 11.7391 5.66985 11.7571 5.72448 11.7571C5.78268 11.7571 5.84088 11.7367 5.8874 11.6959L11.7829 6.53777C11.8605 6.47007 11.8881 6.36119 11.8516 6.26459C11.8154 6.16798 11.7232 6.10424 11.62 6.10424H10.1803L11.8109 4.13002C11.8718 4.05618 11.8847 3.95364 11.8439 3.86693C11.8031 3.78023 11.7158 3.725 11.62 3.725H8.86883C8.79737 3.725 8.72947 3.75588 8.68255 3.80953L5.93115 6.95387C5.86741 7.02692 5.85197 7.13065 5.89215 7.21913C5.93214 7.30742 6.02023 7.36424 6.11743 7.36424H7.70603L5.50732 11.3911C5.44992 11.4964 5.47605 11.6276 5.56968 11.7027Z" fill="white"/>
</svg>
