<svg width="14" height="12" viewBox="0 0 14 12" fill="none" xmlns="http://www.w3.org/2000/svg">
<path fill-rule="evenodd" clip-rule="evenodd" d="M14.3233 3.51093C14.3525 3.47882 14.3628 3.43216 14.3313 3.38412L13.0018 1.35925L12.4817 0.567072C12.4325 0.492134 12.3216 0.49776 12.2306 0.502378C12.21 0.503421 12.1905 0.504413 12.1729 0.504413H11.4849H10.1838C10.1083 0.504413 10.0537 0.577883 10.0728 0.650218L10.6992 3.02886L10.8162 3.47288C10.8292 3.52236 10.8764 3.55744 10.9272 3.55744H13.3555H14.2318C14.2747 3.55744 14.3052 3.53824 14.3233 3.51093ZM10.0223 3.50747C10.0411 3.48313 10.0498 3.4504 10.0396 3.41167L9.41318 1.03302L9.29625 0.58901C9.28322 0.53953 9.23597 0.504449 9.18518 0.504449H6.82171H5.51346C5.46266 0.504449 5.41542 0.53953 5.40239 0.58901L4.77597 2.96764L4.65905 3.41165C4.63999 3.48399 4.69461 3.55746 4.77012 3.55746H6.77055H9.61223H9.92854C9.97322 3.55746 10.0045 3.53661 10.0223 3.50747ZM2.22999 0.549581C2.24826 0.523321 2.27831 0.505041 2.32015 0.505041H2.32032H4.51482C4.59033 0.505041 4.64494 0.578512 4.62589 0.650846L4.50896 1.09486L3.88254 3.47349C3.86951 3.52297 3.82227 3.55805 3.77147 3.55805H2.89521H0.466875C0.383038 3.55805 0.3187 3.45896 0.367423 3.38473L0.891226 2.58696L2.22072 0.56209C2.22366 0.55761 2.22676 0.553444 2.22999 0.549581ZM3.88549 4.35466C3.88968 4.3615 3.89337 4.36902 3.89644 4.37725L4.04259 4.76813L4.94877 7.19169L6.0453 10.1244L6.57833 11.5499C6.6181 11.6563 6.45851 11.7493 6.38581 11.662L6.32402 11.5878L5.1333 10.1581L3.13066 7.75365L1.24666 5.49163L0.411879 4.48932C0.350043 4.41506 0.385996 4.29269 0.49333 4.29269H1.35656H3.78539C3.83599 4.29269 3.86936 4.31941 3.88549 4.35466ZM9.95854 4.32083C9.99315 4.34447 10.0128 4.3858 9.99354 4.43849L9.90865 4.67123L9.07801 6.94823L7.99719 9.91105L7.46042 11.3825C7.4205 11.4919 7.2782 11.4919 7.23828 11.3825L7.15337 11.1497L6.32274 8.87274L5.24191 5.90992L4.70514 4.43849C4.67909 4.36711 4.74593 4.29269 4.81621 4.29269H5.06543H7.8562H9.88249C9.91492 4.29269 9.94027 4.30366 9.95854 4.32083ZM14.2867 4.49048L14.2189 4.57211L13.0139 6.02218L11.0107 8.4328L9.1321 10.6935L8.30084 11.6939C8.22821 11.7812 8.06857 11.6881 8.10832 11.5818L8.2624 11.1697L9.17505 8.72893L10.2708 5.79838L10.8022 4.37725C10.8204 4.32861 10.8586 4.29269 10.9133 4.29269H11.7768H14.1708C14.1955 4.28385 14.2213 4.28707 14.2441 4.29838C14.3249 4.32458 14.3391 4.43475 14.2867 4.49048Z" fill="white"/>
</svg>
