<svg width="15" height="17" viewBox="0 0 15 17" fill="none" xmlns="http://www.w3.org/2000/svg">
<g clip-path="url(#clip0_2_9893)">
<path d="M12.4602 1.00639C12.5674 0.888222 12.4602 0.753176 12.3224 0.85446C12.2306 0.921984 10.1177 2.25557 8.99997 2.96456C8.60189 3.21777 8.32629 3.38658 8.31098 3.40346C8.3416 3.26842 8.38753 3.11649 8.41815 2.99832C8.44878 2.91392 8.41815 2.89704 8.3416 2.88016C7.95883 2.8464 7.59136 2.86328 7.20859 2.91392C6.73395 2.96456 6.25931 3.09961 5.81529 3.31906C5.01913 3.69044 4.34544 4.2475 3.79425 4.99026C3.27368 5.69925 2.8909 6.49265 2.75311 7.38733C2.38564 9.75065 3.19712 11.6075 4.422 12.7723C5.86123 14.1397 7.56074 14.7474 7.56074 15.9965C7.56074 15.9965 9.0459 15.0343 8.26505 14.0046C7.62199 13.1606 7.13204 12.4009 7.04017 11.3543C6.97893 10.696 7.05548 10.0376 7.28515 9.42991C7.31577 9.34551 7.26983 9.34551 7.2239 9.32863C6.91768 9.22734 6.62677 9.07541 6.36649 8.87284C5.64687 8.33266 5.35597 7.48862 5.55501 6.56017C5.61625 6.23944 5.72343 5.95246 5.89185 5.68237C5.90716 5.64861 5.93778 5.61485 5.9684 5.59797C5.93778 5.76678 5.89185 5.93558 5.87654 6.10439C5.73874 7.20164 6.06027 8.14697 6.97893 8.63651C7.40763 8.87284 7.98945 8.83908 8.55595 8.75468C9.27557 8.97413 9.76552 9.21046 10.4698 9.48055C10.8985 9.63248 11.2966 9.5312 11.4957 9.41303C11.7559 9.2611 12.2153 8.75468 11.9244 8.34954C10.1483 6.13815 10.1789 5.46292 9.47461 4.77081C9.36743 4.61888 9.35212 4.66952 9.47461 4.5176C9.82676 4.06181 12.2765 1.20896 12.4602 1.00639ZM8.92342 6.39137C8.66313 6.10439 8.55595 5.53044 8.09663 5.53044C8.09663 5.53044 8.37222 5.32787 8.55595 5.32787C8.78562 5.32787 8.96935 5.53044 8.95404 5.9187C8.93873 6.12127 8.95404 6.2732 9.01528 6.39137C9.03059 6.44201 8.98466 6.45889 8.92342 6.39137Z" fill="white"/>
</g>
<defs>
<clipPath id="clip0_2_9893">
<rect width="14.512" height="16" fill="white" transform="translate(0.350586 0.5)"/>
</clipPath>
</defs>
</svg>
