<svg width="15" height="14" viewBox="0 0 15 14" fill="none" xmlns="http://www.w3.org/2000/svg">
<path fill-rule="evenodd" clip-rule="evenodd" d="M14.3506 6.13392C14.3506 5.80642 14.1902 5.49968 13.9213 5.31277L7.92131 1.1426C7.57819 0.904127 7.12298 0.904127 6.77987 1.1426L0.779866 5.31277C0.510945 5.49968 0.350586 5.80642 0.350586 6.13392V8.67887L5.76126 5.23805C6.72761 4.62352 7.95951 4.61275 8.93646 5.21029L14.3506 8.52183V6.13392ZM14.3506 10.8173L14.3288 10.853L7.89289 6.91645C7.56724 6.71727 7.15661 6.72086 6.83449 6.9257L0.350586 11.049V12.8336C0.350586 13.641 1.25804 14.1155 1.92113 13.6549L6.78004 10.2793C7.12308 10.041 7.57809 10.041 7.92113 10.2793L12.78 13.6549C13.4431 14.1155 14.3506 13.641 14.3506 12.8336V10.8173Z" fill="white"/>
</svg>
