<svg width="17" height="16" viewBox="0 0 17 16" fill="none" xmlns="http://www.w3.org/2000/svg">
<g clip-path="url(#clip0_2_9850)">
<path d="M5.85953 6.95483L4.46178 8.45362L3.24928 7.66213C3.1314 7.59477 2.99667 7.61161 2.89563 7.69581L2.2557 8.33574C2.15466 8.45362 2.15466 8.62203 2.2557 8.72307L3.50188 9.96925L1.73365 11.7712L1.32948 11.367C1.22844 11.266 1.04319 11.266 0.942151 11.367L0.436941 11.8722C0.35274 11.9564 0.319059 12.0911 0.38642 12.1922L0.672706 12.7648C0.790588 13.0005 0.942152 13.2026 1.1274 13.3878C1.31264 13.5731 1.51472 13.7246 1.75049 13.8425L2.3399 14.1457C2.44094 14.1962 2.57566 14.1793 2.65987 14.0951L3.16508 13.5899C3.28296 13.472 3.28296 13.3036 3.16508 13.2026L2.76091 12.8153L4.54598 11.0302L5.79217 12.2764C5.91005 12.3943 6.07845 12.3943 6.1795 12.2764L6.81943 11.6364C6.92047 11.5354 6.93731 11.4007 6.85311 11.2828L6.06161 10.0703L7.62777 8.60519L5.85953 6.95483Z" fill="white"/>
<path d="M12.7979 3.82283C12.8484 3.7723 12.8821 3.70494 12.8989 3.65442L13.522 1.46518C13.5894 1.21257 13.3199 0.943128 13.0673 1.01049L10.8781 1.63358C10.8107 1.65042 10.7602 1.6841 10.7097 1.73462L9.00879 3.57022L10.8949 5.59106L12.7979 3.82283Z" fill="white"/>
<path d="M16.2671 11.8723L15.7619 11.3671C15.6608 11.266 15.4756 11.266 15.3745 11.3671L14.9872 11.7544L13.1853 9.96931L14.4315 8.72313C14.5325 8.62208 14.5325 8.43684 14.4315 8.3358L13.7915 7.69586C13.7073 7.61166 13.5558 7.59482 13.4379 7.66218L12.2254 8.45368L5.99446 1.75123C5.94394 1.7007 5.89342 1.66702 5.82606 1.65018L3.65365 1.02709C3.40105 0.959729 3.1316 1.22917 3.19897 1.48178L3.80522 3.65418C3.82206 3.72154 3.85574 3.77207 3.90626 3.82259L10.6087 10.0704L9.81722 11.2829C9.74986 11.3839 9.7667 11.5355 9.8509 11.6365L10.4908 12.2764C10.5919 12.3775 10.7771 12.3775 10.8782 12.2764L12.1243 11.0303L13.9431 12.8153L13.5558 13.2027C13.4547 13.3037 13.4547 13.4889 13.5558 13.59L14.061 14.0952C14.1452 14.1794 14.2799 14.1962 14.381 14.1457L14.9535 13.8426C15.1893 13.7247 15.3914 13.5731 15.5766 13.3879C15.7619 13.2027 15.9134 13.0006 16.0313 12.7648L16.3344 12.1922C16.3681 12.0912 16.3513 11.9565 16.2671 11.8723Z" fill="white"/>
</g>
<defs>
<clipPath id="clip0_2_9850">
<rect width="16" height="16" fill="white" transform="translate(0.350586)"/>
</clipPath>
</defs>
</svg>
