<svg width="20" height="20" viewBox="0 0 20 20" fill="none" xmlns="http://www.w3.org/2000/svg">
<path d="M10.0002 16.6667C13.6821 16.6667 16.6668 13.6819 16.6668 10C16.6668 6.31811 13.6821 3.33334 10.0002 3.33334C6.31826 3.33334 3.3335 6.31811 3.3335 10C3.3335 13.6819 6.31826 16.6667 10.0002 16.6667Z" stroke="#33435F" stroke-linecap="round" stroke-linejoin="round"/>
<path d="M8.05566 8.33336C8.05566 7.94879 8.1697 7.57285 8.38336 7.25309C8.59702 6.93332 8.9007 6.6841 9.256 6.53693C9.6113 6.38976 10.0023 6.35125 10.3795 6.42628C10.7566 6.50131 11.1031 6.6865 11.375 6.95843C11.647 7.23037 11.8322 7.57683 11.9072 7.95402C11.9822 8.3312 11.9437 8.72217 11.7965 9.07747C11.6494 9.43277 11.4001 9.73645 11.0804 9.95011C10.7606 10.1638 10.3847 10.2778 10.0001 10.2778" stroke="#33435F" stroke-linecap="round" stroke-linejoin="round"/>
<path d="M10 10.2778V11.9445" stroke="#33435F" stroke-linecap="round" stroke-linejoin="round"/>
<path d="M10 13.6112V13.889" stroke="#33435F" stroke-linecap="round" stroke-linejoin="round"/>
</svg>
