<svg width="41" height="26" viewBox="0 0 41 26" fill="none" xmlns="http://www.w3.org/2000/svg">
<path d="M39.8301 19.7742C39.777 19.7229 39.777 19.7229 39.777 19.6716C39.777 19.6716 39.777 19.6203 39.7239 19.6203C39.5115 19.3637 39.1398 19.2097 38.2902 18.7992C35.1043 17.4135 26.7147 13.7698 25.6527 3.044V2.99268C25.5465 2.37685 25.0686 1.91497 24.4846 1.76101C23.9005 1.60705 23.2633 1.81233 22.8916 2.27421C21.4579 4.01908 18.8561 5.96923 16.1481 5.76395C14.0241 5.60999 12.1656 4.17304 10.6258 1.50441C10.2541 0.837254 9.51071 0.426697 8.66113 0.426697C7.54606 0.426697 6.48408 0.991214 5.9 1.96629C5.42211 2.89004 4.73182 3.91644 4.04154 4.94283C3.45745 5.86659 2.82027 6.79034 2.34238 7.61146L1.22731 9.45897C0.855615 10.1261 0.749418 10.8959 1.01491 11.6144C1.22731 12.3329 1.7052 12.8974 2.34238 13.2053C2.60787 13.3593 5.26281 14.8989 17.6348 21.7757C23.3164 24.9575 27.6705 25.5734 33.299 25.5734C36.6442 25.5734 38.8212 24.7523 39.777 23.0587C40.5204 21.827 40.2018 20.4414 39.8301 19.7742Z" fill="white"/>
</svg>
