<svg width="135" height="120" viewBox="0 0 135 120" fill="none" xmlns="http://www.w3.org/2000/svg">
<path d="M10.2168 30.8378V88.429L18.2439 96.4991V104.202L27.0007 113.006H106.907L115.663 104.202V96.4991L123.69 88.429V30.8378L115.663 22.7677V15.4312L106.907 6.62744H27.0007L18.2439 15.4312V22.7677L10.2168 30.8378Z" fill="#283650"/>
<path d="M15.6427 101.313L6.59066 92.2126V25.9528L14.9826 17.5158V10.2177L22.8329 2.98298H59.1075V0H21.6788L12.0155 8.90549V16.2803L8.48171 19.833H4.73011L0 25.4349V39.4394L3.62359 44.4205V93.4482L13.5447 103.422L15.6427 101.313Z" fill="#376FDC"/>
<path d="M119.355 18.6869L128.407 27.7875V94.0473L120.015 102.484V109.782L112.165 117.017H75.8906V120H113.319L122.983 111.095V103.72L126.515 100.168H130.271L135.001 94.5663V80.5617L131.374 75.577V26.5519L121.453 16.5776L119.355 18.6869Z" fill="#376FDC"/>
</svg>
