<svg width="237" height="18" viewBox="0 0 237 18" fill="none" xmlns="http://www.w3.org/2000/svg">
<path fill-rule="evenodd" clip-rule="evenodd" d="M29.7647 12.216L27.9517 14.3388H24.6811L23.3305 12.6533L21.9617 14.3029L18.7363 14.3388L16.9233 12.216C17.2388 15.4622 19.993 18.0001 23.344 18.0001C26.695 18.0001 29.4492 15.4622 29.7647 12.216ZM29.174 8.84685C28.1387 6.68215 25.9173 5.18555 23.344 5.18555C20.7707 5.18555 18.5493 6.68215 17.514 8.84685H29.174Z" fill="white"/>
<path fill-rule="evenodd" clip-rule="evenodd" d="M29.6943 10.6774H16.9233C16.9684 10.3644 17.0363 10.0588 17.1251 9.76208H29.4924C29.5813 10.0588 29.6492 10.3644 29.6943 10.6774Z" fill="white"/>
<path fill-rule="evenodd" clip-rule="evenodd" d="M25.3098 4.10671C25.3098 4.2541 25.3034 4.39168 25.2902 4.51981C24.6793 4.357 24.0372 4.27018 23.3746 4.27018C22.7767 4.27018 22.1955 4.34087 21.6389 4.47428C21.6286 4.35924 21.6236 4.2368 21.6236 4.10671V0.783837C22.2167 0.669314 22.8335 0.608887 23.4667 0.608887C24.0999 0.608887 24.7167 0.669311 25.3098 0.783828V4.10671ZM20.7021 4.10671C20.7021 4.32457 20.7249 4.53684 20.768 4.74103C18.8461 5.4627 17.3074 6.95919 16.5382 8.84681H15.0807V7.8295C15.0807 4.67573 17.429 1.99421 20.7021 1.01047L20.7021 4.10671ZM15.0807 13.4234H16.2345C16.4993 14.4454 16.9807 15.381 17.6271 16.1791V18.0001L15.0807 15.604V13.4234ZM30.5146 13.4234C30.2757 14.3457 29.8603 15.1977 29.3064 15.9418V17.9761L31.8528 15.604V13.4234H30.5146ZM30.211 8.84681H31.8528V7.8295C31.8528 4.67572 29.5045 1.99418 26.2313 1.01046L26.2313 4.10671C26.2313 4.34817 26.2034 4.58276 26.1507 4.8071C27.9934 5.55157 29.4645 7.01503 30.211 8.84681ZM14.1592 9.76213H16.0023V12.5081H14.1592V9.76213ZM30.7469 9.76213H32.59V12.5081H30.7469V9.76213Z" fill="white"/>
<path d="M12.1523 17.9648H7.32674L3.08228 2.80038H0.934791L2.5012 4.28659V17.9648H0V0.558472H4.85081L9.04473 15.7732H11.2175L9.65108 14.1863V0.558472H12.1523V17.9648Z" fill="white"/>
<path d="M43.3318 11.4657H37.1167V17.9899H34.6155V4.91634L36.8135 2.77519H34.3123V0.583661H43.3318V2.77519H37.1167V11.1635L38.961 9.27421H43.3318V11.4657Z" fill="white"/>
<path d="M54.4377 2.77519H50.5217V17.9899H48.0205V2.77519H44.1298V0.583661H54.4377V2.77519Z" fill="white"/>
<path d="M72.5286 2.77519H63.5091V15.7984H69.421V9.27421H65.3534L67.5515 7.10787H71.9222V17.9899H69.421V16.1259L67.5515 17.9899H63.1807L61.0079 15.7984V2.77519L63.1807 0.583661H70.3306L72.5286 2.77519Z" fill="white"/>
<path d="M87.1728 17.9899H84.6969V11.4657H78.7597V17.9899H76.2585V2.77519L78.4565 0.583661H87.1728V17.9899ZM86.2633 2.77519H78.7597V11.1635L80.6545 9.27421H84.6969V4.33697L86.2633 2.77519Z" fill="white"/>
<path d="M106.527 17.9648H104.025V4.33697L105.592 2.80038H103.545L100.185 9.27421H98.3662L95.1323 2.80038H93.1112L94.6776 4.33697V17.9648H92.1764V0.583661H96.6482L99.2505 6.30179H99.5536L102.206 0.583661H106.527V17.9648Z" fill="white"/>
<path d="M120.236 17.9899H111.52V4.91634L113.718 2.77519H111.216V0.583661H120.236V2.77519H114.021V8.97193L115.865 7.10787H120.236V9.27421H114.021V15.7984H120.236V17.9899Z" fill="white"/>
<path d="M134.287 2.77519H125.697V7.10787H131.483L133.63 9.27421V15.7984L131.483 17.9899H125.369L123.196 15.7984V14.0603L125.697 11.6673V15.7984H131.129V9.27421H125.369L123.196 7.10787V2.77519L125.369 0.583661H132.089L134.287 2.77519Z" fill="white"/>
<path d="M152.693 15.7984L150.495 17.9899H144.254L142.082 15.7984V2.77519L144.254 0.583661H150.495L152.693 2.77519V4.58887L150.192 7.10787V2.77519H144.583V15.7984H150.192V13.9595L152.693 11.4657V15.7984Z" fill="white"/>
<path d="M167.161 17.9899H164.685V16.1259L162.815 17.9899H158.445L156.247 15.7984V0.583661H158.748V15.7984H164.685V0.583661H167.161V17.9899Z" fill="white"/>
<path d="M183.079 9.27421L180.881 11.4657H174.666V17.9899H172.165V4.91634L174.363 2.77519H171.861V0.583661H180.881L183.079 2.77519V9.27421ZM180.578 9.27421V2.77519H174.666V11.1635L176.51 9.27421H180.578Z" fill="white"/>
<path d="M199.166 8.87117L192.446 15.4961V15.7984H198.99V17.9899H190.273V14.6145L196.665 8.26661V2.77519H192.749V7.10787H190.273V2.77519L192.421 0.583661H196.994L199.166 2.77519V8.87117Z" fill="white"/>
<path d="M211.929 15.7984L209.731 17.9899H205.36L203.188 15.7984V2.77519L205.36 0.583661H209.731L211.929 2.77519V15.7984ZM209.428 15.7984V2.77519H205.689V15.7984H209.428Z" fill="white"/>
<path d="M224.086 8.87117L217.365 15.4961V15.7984H223.909V17.9899H215.193V14.6145L221.584 8.26661V2.77519H217.668V7.10787H215.193V2.77519L217.34 0.583661H221.913L224.086 2.77519V8.87117Z" fill="white"/>
<path d="M237 17.9899H228.258V15.7984H232.326V3.20342H232.023L229.219 5.99951L227.652 4.43773L231.518 0.583661H234.827V15.7984H237V17.9899Z" fill="white"/>
</svg>
