<svg width="80" height="64" viewBox="0 0 80 64" fill="none" xmlns="http://www.w3.org/2000/svg">
<path fill-rule="evenodd" clip-rule="evenodd" d="M79.2636 17.1974C79.4288 17.0158 79.487 16.752 79.3086 16.4803L71.7902 5.02928L68.8488 0.549351C68.5705 0.125558 67.9434 0.157376 67.4287 0.183492C67.3124 0.189391 67.2019 0.194999 67.1024 0.194999H63.2116H55.8541C55.4271 0.194999 55.1182 0.610489 55.226 1.01956L58.7687 14.4712L59.4299 16.9822C59.5036 17.262 59.7708 17.4604 60.058 17.4604H73.7907H78.7461C78.9886 17.4604 79.1611 17.3519 79.2636 17.1974ZM54.9413 17.1779C55.0479 17.0403 55.0969 16.8552 55.0392 16.6361L51.4968 3.18444L50.8355 0.673458C50.7618 0.393643 50.4947 0.195251 50.2074 0.195251H36.8415H29.4431C29.1559 0.195251 28.8887 0.393643 28.815 0.673458L25.2725 14.1251L24.6113 16.636C24.5035 17.0451 24.8124 17.4606 25.2394 17.4606H36.5522H52.6224H54.4112C54.6639 17.4606 54.8406 17.3427 54.9413 17.1779ZM10.8725 0.450486C10.9758 0.30198 11.1458 0.198608 11.3824 0.198608H11.3834H23.7937C24.2207 0.198608 24.5295 0.614098 24.4218 1.02317L23.7605 3.53415L20.218 16.9857C20.1443 17.2656 19.8772 17.464 19.5899 17.464H14.6345H0.901778C0.427665 17.464 0.063822 16.9036 0.339357 16.4838L3.30156 11.9722L10.8201 0.52123C10.8367 0.495894 10.8542 0.472334 10.8725 0.450486ZM20.2346 21.9691C20.2584 22.0078 20.2792 22.0503 20.2966 22.0968L21.1231 24.3073L26.2477 38.013L32.4488 54.5978L35.4632 62.6597C35.6881 63.2614 34.7855 63.7872 34.3744 63.2935L34.025 62.8739L27.2912 54.7889L15.9659 41.191L5.31154 28.3988L0.590698 22.7306C0.240999 22.3106 0.444323 21.6186 1.05132 21.6186H5.93305H19.6686C19.9547 21.6186 20.1434 21.7697 20.2346 21.9691ZM54.5788 21.7778C54.7746 21.9115 54.8855 22.1451 54.7767 22.4431L54.2967 23.7593L49.5993 36.6362L43.487 53.3915L40.4514 61.7127C40.2257 62.3316 39.421 62.3316 39.1952 61.7127L38.715 60.3965L34.0176 47.5197L27.9054 30.7644L24.8698 22.4431C24.7225 22.0395 25.1005 21.6186 25.4979 21.6186H26.9073H42.6897H54.1487C54.3321 21.6186 54.4755 21.6807 54.5788 21.7778ZM79.0532 22.7369L78.6695 23.1986L71.8551 31.399L60.5267 45.0315L49.9029 57.8163L45.2019 63.4734C44.7912 63.9677 43.8884 63.4409 44.1132 62.8396L44.9845 60.5091L50.1457 46.7062L56.3426 30.1334L59.3477 22.0966C59.4505 21.8216 59.6663 21.6184 59.9758 21.6184H64.8589H78.3976C78.5375 21.5684 78.683 21.5866 78.812 21.6506C79.2692 21.7988 79.3496 22.4218 79.0532 22.7369Z" fill="white"/>
</svg>
