<svg width="76" height="78" viewBox="0 0 76 78" fill="none" xmlns="http://www.w3.org/2000/svg">
<path fill-rule="evenodd" clip-rule="evenodd" d="M53.6782 0.597107L53.8257 0.745833L57.476 4.42612L58.6008 3.31922L60.0036 4.74471L70.9353 15.8529L72.3382 17.2784L71.268 18.3316L75.7063 22.8064L75.8513 22.9525V23.1585V29.0623H74.8513V23.3644L70.5553 19.033L69.4872 20.0841L68.0843 18.6586L57.1526 7.5504L55.7498 6.12491L56.7632 5.12755L53.2632 1.59877L45.7669 1.62858L45.7629 0.628583L53.4687 0.59794L53.6782 0.597107ZM22.859 1.71967L30.3553 1.68986L30.3513 0.689869L22.6455 0.720512L22.4361 0.721344L22.2898 0.871194L18.924 4.31819L17.9091 3.3194L16.5063 4.7449L5.57456 15.8531L4.17172 17.2786L5.24124 18.3311L0.57981 23.1051L0.436768 23.2515L0.437556 23.4563L0.467713 31.2865L1.46771 31.2827L1.43834 23.6572L5.954 19.0326L7.0227 20.0843L8.42555 18.6588L19.3573 7.55058L20.7601 6.12509L19.6368 5.01961L22.859 1.71967ZM1.55738 54.5685L1.52802 46.9431L0.528024 46.9469L0.558179 54.7771L0.558968 54.9819L0.703177 55.1273L5.14324 59.6039L4.07406 60.6561L5.4769 62.0816L16.4086 73.1898L17.8115 74.6153L18.9353 73.5094L22.5838 77.1878L22.7317 77.337L22.9418 77.3357L30.3564 77.2904L30.3503 76.2904L23.1458 76.3345L19.648 72.8079L20.6624 71.8096L19.2596 70.3841L8.32789 59.2759L6.92505 57.8504L5.856 58.9025L1.55738 54.5685ZM74.9719 54.2757L74.9719 48.7593H75.9719L75.9719 54.4793V54.6829L75.8297 54.8286L71.2169 59.5527L72.3382 60.6561L70.9353 62.0816L60.0036 73.1898L58.6008 74.6153L57.5341 73.5656L54.1197 77.0625L53.9734 77.2123L53.7639 77.2132L45.7669 77.245L45.7629 76.245L53.5505 76.214L56.8214 72.8642L55.7498 71.8096L57.1526 70.3841L68.0843 59.2759L69.4872 57.8504L70.5042 58.8513L74.9719 54.2757Z" fill="#3F77FF"/>
</svg>
