<svg width="45" height="46" viewBox="0 0 45 46" fill="none" xmlns="http://www.w3.org/2000/svg">
<path d="M31.3776 0.345642L26.7069 0.364216L26.7108 1.36421L30.9626 1.3473L33.0372 3.439L32.7124 3.75865L40.4442 11.6152L40.7997 11.2653L43.3378 13.8243V17.0363H44.3378V13.4124L41.5125 10.5639L41.8697 10.2124L34.1379 2.35581L33.75 2.73757L31.3776 0.345642Z" fill="#3F77FF"/>
<path d="M17.7883 1.39969L13.5365 1.4166L11.462 3.54122L11.6829 3.75865L3.95118 11.6152L3.76098 11.428L1.25694 13.9925L1.27361 18.321L0.273619 18.3249L0.255371 13.5869L3.04822 10.7266L2.52569 10.2124L10.2574 2.35581L10.7492 2.83979L13.1137 0.41827L17.7844 0.399697L17.7883 1.39969Z" fill="#3F77FF"/>
<path d="M1.30853 27.3876L1.3252 31.7161L3.86495 34.2767L4.22071 33.9266L11.9524 41.7832L11.6274 42.103L13.7007 44.1934L17.7833 44.1684L17.7894 45.1684L13.2867 45.196L10.9147 42.8045L10.5269 43.186L2.79522 35.3295L3.1522 34.9782L0.326783 32.1295L0.308536 27.3914L1.30853 27.3876Z" fill="#3F77FF"/>
<path d="M43.4076 28.4399L43.4076 31.5479L40.7709 34.2482L40.4442 33.9266L32.7124 41.7832L33.0699 42.135L31.1273 44.1245L26.7069 44.1421L26.7108 45.1421L31.5501 45.1229L33.7827 42.8364L34.1379 43.186L41.8697 35.3295L41.4837 34.9496L44.4076 31.9551L44.4076 28.4399H43.4076Z" fill="#3F77FF"/>
</svg>
