<svg width="36" height="36" viewBox="0 0 36 36" fill="none" xmlns="http://www.w3.org/2000/svg">
<path d="M16.0237 14.7978C16.5304 13.6831 15.852 12.2539 15.5233 11.0699C15.1492 9.7187 14.6002 8.33609 14.5815 7.13411C14.54 4.31576 16.5767 1.58519 19.0577 0.958788C21.7848 0.270486 22.7798 2.83245 24.9762 3.46024C25.9939 3.75034 27.2493 3.65287 28.0012 4.05153C32.2486 6.30537 29.5581 12.0418 26.5148 13.7446C25.5822 14.2652 24.5766 14.8098 23.5321 15.2875C22.658 15.6861 21.3214 15.8566 20.8447 16.968C21.6068 17.5649 22.9283 16.6622 24.0022 16.2433C25.1666 15.7887 26.2922 15.2367 27.3193 14.9489C30.5236 14.0541 36.0675 16.1134 34.8745 20.6091C34.544 21.8559 33.4313 22.5008 33.0719 23.7166C32.8155 24.5865 33.0764 25.5011 32.9154 26.31C32.4239 28.756 29.3454 30.4029 26.7757 29.5898C24.5962 28.9002 23.1557 27.0528 21.6702 24.6207C21.2728 23.9693 20.978 22.9424 20.1151 22.6953C19.7119 23.9351 20.7733 25.9469 21.3259 27.0334C22.8252 29.9793 25.2 32.4793 27.3568 33.5404C26.7003 34.0911 25.4083 34.3428 24.507 34.7784C21.6425 32.7449 19.8577 27.8266 18.2955 23.4058C17.3648 23.8839 18.0061 25.5007 18.1519 26.3724C18.7558 29.9548 18.4797 34.5803 14.4445 35.6654C11.7714 36.3851 10.9936 34.5738 9.18074 33.2887C7.88742 32.3722 5.44974 32.6138 4.41241 30.5923C2.88406 27.6099 5.01403 23.992 7.62831 22.6292C8.61213 22.1165 9.84881 21.7635 10.9459 21.3358C11.8735 20.9741 13.0638 20.8253 13.7145 19.876C12.7552 19.1009 11.5216 20.0321 10.6904 20.2964C7.36519 21.3547 4.60819 21.8582 2.25837 20.2936C0.783092 19.3097 -0.48213 16.8646 0.284049 14.862C0.651976 13.9016 1.55239 13.1893 2.07463 12.3925C3.53295 10.1663 2.45192 7.02093 6.21547 5.96769C8.27809 5.38979 11.0333 6.43287 12.3347 8.01042C13.9067 9.91826 14.2055 13.0424 16.0237 14.7978Z" fill="white"/>
</svg>
