<svg width="30" height="16" viewBox="0 0 30 16" fill="none" xmlns="http://www.w3.org/2000/svg">
<path fill-rule="evenodd" clip-rule="evenodd" d="M0 1C0 0.447715 0.447715 0 1 0H29C29.5523 0 30 0.447715 30 1C30 1.55228 29.5523 2 29 2H1C0.447716 2 0 1.55228 0 1ZM6 8C6 7.44772 6.44772 7 7 7H29C29.5523 7 30 7.44772 30 8C30 8.55229 29.5523 9 29 9H7C6.44772 9 6 8.55229 6 8ZM13 14C12.4477 14 12 14.4477 12 15C12 15.5523 12.4477 16 13 16H29C29.5523 16 30 15.5523 30 15C30 14.4477 29.5523 14 29 14H13Z" fill="#7388AD"/>
</svg>
