<svg width="280" height="350" viewBox="0 0 280 350" fill="none" xmlns="http://www.w3.org/2000/svg">
<path d="M54.6594 337.384H139.353H222.57L241.282 319.046V304.569L261.47 284.784V60.3902L243.744 43.0178V28.0582L224.047 8.75555H55.1519L35.4556 28.0582V43.0178L16.7441 61.3553V285.749L35.948 304.569V319.046L54.6594 337.384Z" fill="#283650"/>
<path d="M270.304 183.204V294.56L250.116 314.346V328.823L232.588 346H150.188V350H234.221L254.116 330.503V316.026L260.389 309.878H271.449L280.001 301.59V264.599L274.304 257.467V183.204H270.304Z" fill="#376FDC"/>
<path d="M9.87904 166.797V55.4108L29.0829 35.6256V21.2081L47.566 4H129.996V0H45.9923L25.0829 19.467V34.0035L19.1433 40.123H8.55237L0.000488281 48.4112V85.402L5.87904 92.7622V166.797H9.87904Z" fill="#376FDC"/>
</svg>
