<svg width="285" height="361" viewBox="0 0 285 361" fill="none" xmlns="http://www.w3.org/2000/svg">
<path d="M55.6346 348.062H141.841H226.545L245.59 329.195V314.299L266.14 293.942V63.0635L248.096 45.189V29.7971L228.048 9.93652H56.1358L36.0877 29.7971V45.189L17.042 64.0565V294.935L36.5889 314.299V329.195L55.6346 348.062Z" fill="#283650"/>
<path d="M275.167 189.426V304.032L254.617 324.389V339.284L236.749 356.986H152.868V360.986H238.395L258.617 340.952V326.057L264.971 319.762H276.296L285 311.234V273.174L279.167 265.791V189.426H275.167Z" fill="#376FDC"/>
<path d="M10.0194 172.545V57.9106L29.5663 37.5535V22.7175L48.4075 4.98584H132.318V0.98584H46.8213L25.5663 20.9892V35.944L19.5502 42.2095H8.70416L-0.000488281 50.7372V88.7971L6.01942 96.4161V172.545H10.0194Z" fill="#376FDC"/>
</svg>
