<svg width="133" height="133" viewBox="0 0 133 133" fill="none" xmlns="http://www.w3.org/2000/svg">
<path fill-rule="evenodd" clip-rule="evenodd" d="M93.5785 0.396729L93.7255 0.542601L101.28 8.038L102.356 7.01584L103.733 8.46584L122.619 28.3454L123.996 29.7954L123.594 30.1779L132.242 38.7593L132.39 38.9059V39.1142V49.3417H131.39V39.3224L122.868 30.8669L121.096 32.5504L119.719 31.1004L100.833 11.2208L99.4557 9.77084L100.554 8.72705L93.1682 1.39834L79.8105 1.45062L79.8066 0.450625L93.3713 0.397539L93.5785 0.396729ZM39.3235 1.60906L52.6811 1.55678L52.6772 0.556792L39.1125 0.609877L38.9054 0.610687L38.7595 0.757706L31.6254 7.94782L30.6444 7.01584L29.2669 8.46584L10.3814 28.3454L9.00388 29.7954L9.49001 30.2572L0.542845 39.2747L0.396973 39.4217L0.397783 39.6288L0.450869 53.1935L1.45086 53.1896L1.39859 39.832L10.2152 30.9461L11.9039 32.5504L13.2814 31.1004L32.1669 11.2208L33.5444 9.77084L32.3506 8.63673L39.3235 1.60906ZM1.6093 93.6766L1.55703 80.319L0.557036 80.3229L0.610119 93.8876L0.610929 94.0948L0.757948 94.2406L9.93141 103.343L9.00295 104.271L10.4172 105.685L29.3027 124.571L30.7169 125.985L31.7304 124.972L39.2749 132.457L39.4224 132.604L39.6301 132.602L52.6822 132.524L52.6761 131.524L39.8318 131.601L32.4375 124.264L33.5453 123.157L32.1311 121.742L13.2456 102.857L11.8314 101.443L10.6385 102.635L1.6093 93.6766ZM131.603 93.1671L131.603 83.464H132.603L132.603 93.3731V93.579L132.458 93.7252L122.992 103.265L123.997 104.271L122.583 105.685L103.697 124.571L102.283 125.985L101.363 125.064L94.2409 132.242L94.095 132.389L93.8879 132.39L79.8105 132.445L79.8066 131.445L93.6769 131.391L100.656 124.357L99.4548 123.157L100.869 121.742L119.755 102.857L121.169 101.443L122.285 102.558L131.603 93.1671Z" fill="#F2BBB7"/>
</svg>
