<svg width="106" height="106" viewBox="0 0 106 106" fill="none" xmlns="http://www.w3.org/2000/svg">
<path d="M74.3775 0.812378L63.483 0.855014L63.4869 1.85501L73.9672 1.81399L79.7816 7.5831L78.3647 9.00001L96.0726 26.708L97.5589 25.2217L104.019 31.6315V39.4813H105.019V31.215L98.266 24.5146L98.9011 23.8795L81.1931 6.17158L80.4887 6.87599L74.3775 0.812378Z" fill="#9B92BC"/>
<path d="M42.1122 1.93865L31.632 1.97967L26.181 7.47345L27.7076 9.00001L9.99964 26.708L8.54238 25.2507L1.81363 32.0323L1.85464 42.5126L0.854647 42.5165L0.812012 31.622L7.83527 24.5436L7.17122 23.8795L24.8792 6.17158L25.4739 6.76634L31.2139 0.981295L42.1083 0.938661L42.1122 1.93865Z" fill="#9B92BC"/>
<path d="M1.93829 63.8873L1.9793 74.3675L8.79765 81.1327L9.99977 79.9306L27.7077 97.6385L26.5749 98.7714L32.0315 104.185L42.1072 104.125L42.1133 105.125L31.6221 105.188L25.8678 99.4785L24.8793 100.467L7.17134 82.759L8.09054 81.8398L0.980928 74.7856L0.938294 63.8912L1.93829 63.8873Z" fill="#9B92BC"/>
<path d="M104.186 66.3655L104.186 73.9667L97.175 81.0331L96.0725 79.9306L78.3646 97.6385L79.5364 98.8104L74.3672 104.02L63.483 104.063L63.4869 105.063L74.7853 105.019L80.2435 99.5175L81.193 100.467L98.901 82.759L97.8821 81.7402L105.186 74.3786L105.186 66.3655H104.186Z" fill="#9B92BC"/>
</svg>
