<svg width="42" height="42" viewBox="0 0 42 42" fill="none" xmlns="http://www.w3.org/2000/svg">
<path fill-rule="evenodd" clip-rule="evenodd" d="M31.214 8.00089L31.5546 7.77382C29.246 6.22217 26.559 5.1625 23.6828 4.82189C23.2287 4.78405 22.8124 5.12465 22.8124 5.5788V10.8771C22.8124 11.2556 23.0773 11.5584 23.4557 11.634C24.2126 11.7476 24.9317 11.9746 25.6508 12.2396C26.0327 11.9481 26.4413 11.6353 26.8787 11.3004L26.8788 11.3003C28.0885 10.3742 29.5186 9.27943 31.214 8.00089ZM10.3234 8.53073C12.8211 6.56278 15.9245 5.23819 19.2548 4.8219C19.709 4.78405 20.1253 5.12466 20.1253 5.54096V10.8393C20.1253 11.2177 19.8604 11.5205 19.5198 11.5962C17.8546 11.899 16.3029 12.5423 14.9783 13.4885C14.6756 13.7155 14.2593 13.6777 13.9943 13.4128L10.2477 9.66609C9.94491 9.36333 9.98275 8.79565 10.3234 8.53073ZM12.0642 15.3429L8.31752 11.5962C7.97692 11.2556 7.44708 11.2935 7.18217 11.6719C5.21421 14.1697 3.88963 17.273 3.47333 20.6034C3.43549 21.0575 3.77609 21.4738 4.23024 21.4738H9.52857C9.90703 21.4738 10.2098 21.2089 10.2855 20.8683C10.5882 19.2031 11.2316 17.6515 12.1777 16.3269C12.367 15.9863 12.3291 15.57 12.0642 15.3429ZM3.47334 25.0316C3.85179 28.3241 5.13853 31.3896 7.18217 34.0009C7.44709 34.3415 8.01477 34.3793 8.31753 34.0766L12.0642 30.3299C12.3291 30.065 12.367 29.6487 12.1399 29.3459C11.1559 27.9835 10.5126 26.4318 10.2476 24.8045C10.1719 24.426 9.86918 24.199 9.49073 24.199H4.1924C3.7761 24.1611 3.43549 24.5774 3.47334 25.0316ZM34.5818 34.0386L30.8352 30.2919C30.5703 30.027 30.5324 29.6107 30.7216 29.3079C31.7056 27.9455 32.349 26.3939 32.6139 24.7665C32.6896 24.4259 32.9923 24.161 33.3708 24.161H38.6691C39.1233 24.161 39.4639 24.5773 39.426 25.0314C39.0097 28.324 37.7608 31.3894 35.7172 33.9629C35.4523 34.3414 34.9225 34.3792 34.5818 34.0386ZM33.3707 21.4733H38.669C39.1232 21.4733 39.4638 21.057 39.4259 20.6029C39.0853 17.6888 38.0256 15.0018 36.474 12.6932C36.4535 12.7547 36.4108 12.8161 36.364 12.8836L36.364 12.8836L36.364 12.8836C36.3243 12.9408 36.2816 13.0023 36.2469 13.0717C35.8839 13.5531 35.5373 14.0131 35.2059 14.453L35.2048 14.4545L35.2043 14.4551C33.9469 16.1241 32.9065 17.505 32.0083 18.6728C32.2732 19.354 32.4624 20.1109 32.6138 20.8678C32.6895 21.2084 32.9922 21.4733 33.3707 21.4733ZM32.8038 10.1579C33.6742 9.55235 34.7339 10.612 34.0905 11.4446C33.5787 12.12 33.0428 12.8287 32.4989 13.548C30.1475 16.6579 27.6468 19.9652 26.2944 21.625L26.2944 21.625C26.3701 22.0035 26.4458 22.3819 26.4458 22.7982C26.4458 25.5609 24.2129 27.7938 21.4502 27.7938C18.6875 27.7938 16.4546 25.5609 16.4546 22.7982C16.4546 20.0355 18.6875 17.8026 21.4502 17.8026C21.8665 17.8026 22.2449 17.8783 22.6234 17.954C24.667 16.3267 29.2085 12.8827 32.8038 10.1579Z" fill="white"/>
</svg>
