<svg width="43" height="25" viewBox="0 0 43 25" fill="none" xmlns="http://www.w3.org/2000/svg">
<path d="M36.1278 6.14257C31.3049 2.39145 26.2141 0.426575 21.5252 0.426575C10.2272 0.426575 1.3406 11.3673 0.983351 11.8139C0.787453 12.0533 0.68042 12.3531 0.68042 12.6624C0.68042 12.9717 0.787453 13.2715 0.983351 13.5108C2.75244 15.6103 4.74382 17.5118 6.92263 19.1822C11.7455 22.9333 16.8363 24.8982 21.5252 24.8982C32.8232 24.8982 41.7098 13.9574 42.0671 13.4662C42.2518 13.2304 42.3521 12.9396 42.3521 12.6401C42.3521 12.3406 42.2518 12.0497 42.0671 11.8139C40.2977 9.71472 38.3064 7.8132 36.1278 6.14257ZM21.5252 21.7723C19.7235 21.7723 17.9622 21.238 16.464 20.237C14.9659 19.236 13.7983 17.8132 13.1088 16.1486C12.4193 14.484 12.2389 12.6523 12.5904 10.8851C12.9419 9.11799 13.8095 7.49477 15.0836 6.22073C16.3576 4.94669 17.9808 4.07906 19.748 3.72755C21.5151 3.37605 23.3468 3.55645 25.0114 4.24596C26.676 4.93546 28.0988 6.1031 29.0998 7.60121C30.1008 9.09932 30.6351 10.8606 30.6351 12.6624C30.6233 15.0748 29.6598 17.3852 27.9539 19.0911C26.248 20.797 23.9377 21.7605 21.5252 21.7723Z" fill="white"/>
<path d="M21.5247 7.70621C20.5443 7.70621 19.586 7.99692 18.7708 8.54158C17.9557 9.08625 17.3204 9.8604 16.9452 10.7661C16.57 11.6719 16.4719 12.6685 16.6631 13.6301C16.8544 14.5916 17.3265 15.4748 18.0197 16.1681C18.7129 16.8613 19.5961 17.3334 20.5577 17.5246C21.5192 17.7159 22.5159 17.6177 23.4216 17.2426C24.3274 16.8674 25.1015 16.2321 25.6462 15.4169C26.1908 14.6018 26.4816 13.6434 26.4816 12.663C26.4816 11.3484 25.9593 10.0876 25.0297 9.15803C24.1001 8.22844 22.8393 7.70621 21.5247 7.70621Z" fill="white"/>
</svg>
